<svg xmlns="http://www.w3.org/2000/svg" width="32" height="32" viewBox="0 0 32 32">
	<g transform="translate(0 -0.023)">
		<rect fill="none" width="32" height="32" transform="translate(0 0.023)" />
		<path fill="#000" d="M36.819,28.165a2,2,0,0,0-1.959-.511L11.552,34.228a2,2,0,0,0-.313,3.735l9.749,4.618,6.665-6.665a1,1,0,1,1,1.415,1.415L22.4,44l4.618,9.749a1.983,1.983,0,0,0,1.8,1.145q.086,0,.173-.007a1.985,1.985,0,0,0,1.759-1.451L37.33,30.123a2,2,0,0,0-.511-1.959Z" transform="translate(-8.831 -24.129)" />
	</g>
</svg>
